<svg xmlns:dc="http://purl.org/dc/elements/1.1/" xmlns:cc="http://creativecommons.org/ns#" xmlns:rdf="http://www.w3.org/1999/02/22-rdf-syntax-ns#" xmlns:svg="http://www.w3.org/2000/svg" xmlns="http://www.w3.org/2000/svg" xmlns:xlink="http://www.w3.org/1999/xlink" version="1.1" style="" viewBox="292.12 343.12 439.77 81.77"><rect id="backgroundrect" width="100%" height="100%" x="0" y="0" fill="none" stroke="none"/>
  <metadata id="metadata17057">
    <rdf:rdf>
      <cc:work rdf:about="">
        <dc:format>image/svg+xml</dc:format>
        <dc:type rdf:resource="http://purl.org/dc/dcmitype/StillImage"/>
      </cc:work>
    </rdf:rdf>
  </metadata>
  <defs id="defs17055"/>
  <linearGradient spreadMethod="pad" y2="30%" x2="-10%" y1="120%" x1="30%" id="3d_gradient2-logo-f9e8a77f-f1eb-48f1-9f21-134a104b9182">
    <stop id="stop17032" stop-opacity="1" stop-color="#ffffff" offset="0%"/>
    <stop id="stop17034" stop-opacity="1" stop-color="#000000" offset="100%"/>
  </linearGradient>
  <linearGradient gradientTransform="rotate(-30)" spreadMethod="pad" y2="30%" x2="-10%" y1="120%" x1="30%" id="3d_gradient3-logo-f9e8a77f-f1eb-48f1-9f21-134a104b9182">
    <stop id="stop17037" stop-opacity="1" stop-color="#ffffff" offset="0%"/>
    <stop id="stop17039" stop-opacity="1" stop-color="#cccccc" offset="50%"/>
    <stop id="stop17041" stop-opacity="1" stop-color="#000000" offset="100%"/>
  </linearGradient>
  
<g class="currentLayer" style=""><title>Layer 1</title><g id="logo-group" class="selected">
    <image id="container" style="display: none;" x="272" y="144" width="480" height="480" xlink:href="undefined"/>
    <g id="logo-center">
      <image id="icon_container" style="display: none;" x="0" y="0" xlink:href="undefined"/>
      <g id="slogan" style="font-style:oblique;font-weight:300;font-size:32px;line-height:1;font-family:Lato;font-variant-ligatures:none;text-align:center;text-anchor:middle"/>
      <g id="title" style="font-style:normal;font-weight:700;font-size:72px;line-height:1;font-family:'Comfortaa Bold Alt2';font-variant-ligatures:none;text-align:center;text-anchor:middle">
        <path id="path17060" style="font-style:normal;font-weight:700;font-size:72px;line-height:1;font-family:'Comfortaa Bold Alt2';font-variant-ligatures:none;text-align:center;text-anchor:middle" d="m328.0949817657411,345.91838719844816 c-3.1968000411987303,-1.8381600236892703 -7.032960090637207,-2.7972000360488893 -11.588400149345397,-2.7972000360488893 c-4.235760054588318,0 -8.071920104026795,0.7192800092697146 -11.428560147285461,1.9980000257492065 c-3.356640043258667,1.2787200164794923 -6.073920078277588,3.1968000411987303 -7.992000102996826,5.674320073127746 c-1.9180800247192384,2.4775200319290165 -2.877120037078858,5.4345600700378425 -2.877120037078858,8.791200113296508 c0,4.875120062828064 1.8381600236892703,8.951040115356445 5.674320073127746,12.147840156555176 c3.7562400484085083,3.1968000411987303 8.951040115356445,5.114880065917969 15.58440020084381,5.754240074157715 c4.795200061798096,0.4795200061798097 8.3116801071167,1.8381600236892703 10.709280138015746,3.996000051498413 c2.3176800298690803,2.157840027809143 3.5164800453186036,4.715280060768127 3.5164800453186036,7.7522400999069205 c0,3.1968000411987303 -1.4385600185394287,5.754240074157715 -4.15584005355835,7.592400097846984 c-2.7972000360488893,1.8381600236892703 -6.153840079307557,2.717280035018921 -10.14984013080597,2.717280035018921 c-3.4365600442886355,0 -6.553440084457398,-0.7192800092697146 -9.350640120506286,-2.157840027809143 c-2.877120037078858,-1.4385600185394287 -4.715280060768127,-3.1968000411987303 -5.674320073127746,-5.274720067977905 c-0.3996000051498415,-0.7992000102996828 -0.9590400123596194,-1.518480019569397 -1.758240022659302,-1.9980000257492065 c-0.7992000102996828,-0.4795200061798097 -1.5984000205993651,-0.7992000102996828 -2.397600030899048,-0.7992000102996828 c-0.3996000051498415,0 -0.6393600082397461,0.07992000102996827 -0.7992000102996828,0.07992000102996827 c-1.0389600133895875,0.23976000308990483 -1.8381600236892703,0.6393600082397461 -2.397600030899048,1.2787200164794923 c-0.6393600082397461,0.6393600082397461 -0.879120011329651,1.2787200164794923 -0.879120011329651,2.077920026779175 c0,0.4795200061798097 0.07992000102996827,0.9590400123596194 0.3996000051498415,1.5984000205993651 c1.5984000205993651,3.8361600494384764 4.475520057678223,6.873120088577271 8.71128011226654,9.190800118446349 c4.235760054588318,2.397600030899048 8.951040115356445,3.5164800453186036 14.145840182304383,3.5164800453186036 c3.916080050468445,0 7.592400097846984,-0.6393600082397461 11.02896014213562,-1.9980000257492065 c3.4365600442886355,-1.3586400175094604 6.233760080337524,-3.4365600442886355 8.3116801071167,-6.153840079307557 c2.077920026779175,-2.717280035018921 3.116880040168762,-6.073920078277588 3.116880040168762,-9.910080127716066 c0,-5.274720067977905 -1.758240022659302,-9.510480122566223 -5.274720067977905,-12.707280163764954 c-3.5164800453186036,-3.1968000411987303 -8.471520109176636,-5.194800066947937 -14.865120191574096,-5.8341600751876825 c-5.754240074157715,-0.5594400072097779 -9.750240125656129,-1.758240022659302 -11.98800015449524,-3.6763200473785407 c-2.2377600288391113,-1.8381600236892703 -3.356640043258667,-4.15584005355835 -3.356640043258667,-6.953040089607239 c0,-2.9570400381088264 1.198800015449524,-5.194800066947937 3.7562400484085083,-6.7932000875473015 c2.4775200319290165,-1.5984000205993651 5.754240074157715,-2.397600030899048 9.830160126686096,-2.397600030899048 c3.276720042228699,0 5.99400007724762,0.6393600082397461 8.151840105056763,1.9180800247192384 c2.157840027809143,1.2787200164794923 3.996000051498413,3.036960039138794 5.4345600700378425,5.4345600700378425 c0.31968000411987324,0.7192800092697146 0.879120011329651,1.2787200164794923 1.5984000205993651,1.6783200216293337 c0.6393600082397461,0.3996000051498415 1.4385600185394287,0.5594400072097779 2.2377600288391113,0.5594400072097779 c0.7992000102996828,0 1.4385600185394287,-0.15984000205993656 2.077920026779175,-0.5594400072097779 c1.0389600133895875,-0.7192800092697146 1.5984000205993651,-1.6783200216293337 1.5984000205993651,-2.877120037078858 c0,-0.879120011329651 -0.31968000411987324,-1.8381600236892703 -0.9590400123596194,-2.877120037078858 c-2.2377600288391113,-3.4365600442886355 -4.875120062828064,-6.073920078277588 -7.992000102996826,-7.992000102996826 z" stroke-width="0" stroke-linejoin="miter" stroke-miterlimit="2" fill="#244986" stroke="#244986"/>
        <path id="path17062" style="font-style:normal;font-weight:700;font-size:72px;line-height:1;font-family:'Comfortaa Bold Alt2';font-variant-ligatures:none;text-align:center;text-anchor:middle" d="m354.783817460531,344.95934718608856 c-0.7992000102996828,0.7992000102996828 -1.1188800144195556,1.758240022659302 -1.1188800144195556,2.877120037078858 v43.63632056236267 c0,2.877120037078858 0.4795200061798097,5.4345600700378425 1.518480019569397,7.672320098876953 c0.9590400123596194,2.2377600288391113 2.397600030899048,3.996000051498413 4.235760054588318,5.274720067977905 c1.8381600236892703,1.2787200164794923 3.916080050468445,1.8381600236892703 6.233760080337524,1.8381600236892703 h0.15984000205993656 c1.5984000205993651,0 2.877120037078858,-0.31968000411987324 3.916080050468445,-1.1188800144195556 c0.9590400123596194,-0.7192800092697146 1.518480019569397,-1.6783200216293337 1.518480019569397,-2.877120037078858 c0,-1.1188800144195556 -0.3996000051498415,-2.077920026779175 -1.0389600133895875,-2.877120037078858 c-0.6393600082397461,-0.7192800092697146 -1.518480019569397,-1.1188800144195556 -2.5574400329589846,-1.1188800144195556 h-1.9980000257492065 c-1.198800015449524,0 -2.157840027809143,-0.6393600082397461 -2.877120037078858,-1.9180800247192384 c-0.7992000102996828,-1.2787200164794923 -1.1188800144195556,-2.877120037078858 -1.1188800144195556,-4.875120062828064 v-43.63632056236267 c0,-1.1188800144195556 -0.3996000051498415,-2.077920026779175 -1.1188800144195556,-2.877120037078858 c-0.7992000102996828,-0.7192800092697146 -1.758240022659302,-1.1188800144195556 -2.877120037078858,-1.1188800144195556 c-1.198800015449524,0 -2.157840027809143,0.3996000051498415 -2.877120037078858,1.1188800144195556 z" stroke-width="0" stroke-linejoin="miter" stroke-miterlimit="2" fill="#36437a" stroke="#36437a"/>
        <path id="path17064" style="font-style:normal;font-weight:700;font-size:72px;line-height:1;font-family:'Comfortaa Bold Alt2';font-variant-ligatures:none;text-align:center;text-anchor:middle" d="m401.29158962831497,406.5776756095886 c5.274720067977905,0 9.910080127716066,-1.5984000205993651 13.986000180244446,-4.955040063858033 c0.879120011329651,-0.6393600082397461 1.2787200164794923,-1.518480019569397 1.4385600185394287,-2.5574400329589846 c0.07992000102996827,-1.1188800144195556 -0.15984000205993656,-1.9980000257492065 -0.879120011329651,-2.877120037078858 c-0.6393600082397461,-0.7992000102996828 -1.518480019569397,-1.2787200164794923 -2.5574400329589846,-1.3586400175094604 c-1.0389600133895875,-0.07992000102996827 -1.9980000257492065,0.15984000205993656 -2.7972000360488893,0.879120011329651 c-2.717280035018921,2.157840027809143 -5.754240074157715,3.1968000411987303 -9.190800118446349,3.1968000411987303 c-3.996000051498413,0 -7.432560095787048,-1.3586400175094604 -10.229760131835937,-4.235760054588318 c-2.877120037078858,-2.7972000360488893 -4.235760054588318,-6.233760080337524 -4.235760054588318,-10.229760131835937 c0,-3.996000051498413 1.3586400175094604,-7.432560095787048 4.235760054588318,-10.309680132865907 c2.7972000360488893,-2.7972000360488893 6.233760080337524,-4.235760054588318 10.229760131835937,-4.235760054588318 c3.276720042228699,0 6.233760080337524,1.0389600133895875 8.871120114326477,3.036960039138794 c2.5574400329589846,1.9980000257492065 4.235760054588318,4.555440058708191 5.114880065917969,7.672320098876953 h-13.986000180244446 c-1.0389600133895875,0 -1.9980000257492065,0.3996000051498415 -2.717280035018921,1.1188800144195556 c-0.7192800092697146,0.7192800092697146 -1.1188800144195556,1.6783200216293337 -1.1188800144195556,2.717280035018921 c0,1.0389600133895875 0.3996000051498415,1.9980000257492065 1.1188800144195556,2.717280035018921 c0.7192800092697146,0.7192800092697146 1.6783200216293337,1.1188800144195556 2.717280035018921,1.1188800144195556 h18.381600236892698 c1.0389600133895875,0 1.9180800247192384,-0.3996000051498415 2.6373600339889527,-1.1188800144195556 c0.7992000102996828,-0.7192800092697146 1.198800015449524,-1.6783200216293337 1.198800015449524,-2.717280035018921 c0,-6.153840079307557 -2.2377600288391113,-11.348640146255493 -6.553440084457398,-15.66432020187378 c-4.315680055618286,-4.315680055618286 -9.510480122566223,-6.553440084457398 -15.66432020187378,-6.553440084457398 c-6.153840079307557,0 -11.348640146255493,2.2377600288391113 -15.66432020187378,6.553440084457398 c-4.315680055618286,4.315680055618286 -6.473520083427429,9.510480122566223 -6.473520083427429,15.66432020187378 c0,6.153840079307557 2.157840027809143,11.348640146255493 6.473520083427429,15.66432020187378 c4.315680055618286,4.315680055618286 9.510480122566223,6.473520083427429 15.66432020187378,6.473520083427429 z" stroke-width="0" stroke-linejoin="miter" stroke-miterlimit="2" fill="#483e6d" stroke="#483e6d"/>
        <path id="path17066" style="font-style:normal;font-weight:700;font-size:72px;line-height:1;font-family:'Comfortaa Bold Alt2';font-variant-ligatures:none;text-align:center;text-anchor:middle" d="m471.4619008834719,368.77551512241365 c-4.315680055618286,-4.315680055618286 -9.510480122566223,-6.553440084457398 -15.66432020187378,-6.553440084457398 c-6.073920078277588,0 -11.348640146255493,2.2377600288391113 -15.66432020187378,6.553440084457398 c-4.315680055618286,4.315680055618286 -6.473520083427429,9.510480122566223 -6.473520083427429,15.66432020187378 c0,6.153840079307557 2.157840027809143,11.348640146255493 6.473520083427429,15.66432020187378 c4.315680055618286,4.315680055618286 9.590400123596192,6.473520083427429 15.66432020187378,6.473520083427429 c5.51448007106781,0 10.389600133895874,-1.758240022659302 14.545440187454222,-5.354640069007873 v1.518480019569397 c0,1.1188800144195556 0.31968000411987324,1.9980000257492065 1.1188800144195556,2.717280035018921 c0.7192800092697146,0.7992000102996828 1.5984000205993651,1.1188800144195556 2.717280035018921,1.1188800144195556 c1.0389600133895875,0 1.9180800247192384,-0.31968000411987324 2.717280035018921,-1.1188800144195556 c0.7192800092697146,-0.7192800092697146 1.1188800144195556,-1.5984000205993651 1.1188800144195556,-2.717280035018921 v-18.301680235862733 c0,-6.153840079307557 -2.157840027809143,-11.348640146255493 -6.553440084457398,-15.66432020187378 zm-15.66432020187378,30.12984038829803 c-3.996000051498413,0 -7.432560095787048,-1.3586400175094604 -10.229760131835937,-4.235760054588318 c-2.877120037078858,-2.7972000360488893 -4.235760054588318,-6.233760080337524 -4.235760054588318,-10.229760131835937 c0,-3.996000051498413 1.3586400175094604,-7.432560095787048 4.235760054588318,-10.229760131835937 c2.7972000360488893,-2.877120037078858 6.233760080337524,-4.315680055618286 10.229760131835937,-4.315680055618286 c3.996000051498413,0 7.432560095787048,1.4385600185394287 10.229760131835937,4.315680055618286 c2.877120037078858,2.7972000360488893 4.315680055618286,6.233760080337524 4.315680055618286,10.229760131835937 c0,3.996000051498413 -1.4385600185394287,7.432560095787048 -4.315680055618286,10.229760131835937 c-2.7972000360488893,2.877120037078858 -6.233760080337524,4.235760054588318 -10.229760131835937,4.235760054588318 z" stroke-width="0" stroke-linejoin="miter" stroke-miterlimit="2" fill="#5a3861" stroke="#5a3861"/>
        <path id="path17068" style="font-style:normal;font-weight:700;font-size:72px;line-height:1;font-family:'Comfortaa Bold Alt2';font-variant-ligatures:none;text-align:center;text-anchor:middle" d="m520.0712943607629,361.3429473972321 c-6.713280086517334,0 -12.38760015964508,2.397600030899048 -17.182800221443177,7.112880091667176 c-4.715280060768127,4.715280060768127 -7.032960090637207,10.389600133895874 -7.032960090637207,17.10288022041321 v16.863120217323303 c0,1.1188800144195556 0.31968000411987324,1.9980000257492065 1.1188800144195556,2.717280035018921 c0.7192800092697146,0.7992000102996828 1.5984000205993651,1.1188800144195556 2.717280035018921,1.1188800144195556 c1.0389600133895875,0 1.9180800247192384,-0.31968000411987324 2.6373600339889527,-1.1188800144195556 c0.7992000102996828,-0.7192800092697146 1.198800015449524,-1.5984000205993651 1.198800015449524,-2.717280035018921 v-16.863120217323303 c0,-4.555440058708191 1.5984000205993651,-8.471520109176636 4.795200061798096,-11.668320150375367 c3.276720042228699,-3.276720042228699 7.192800092697144,-4.875120062828064 11.748240151405334,-4.875120062828064 c1.0389600133895875,0 1.9180800247192384,-0.3996000051498415 2.717280035018921,-1.1188800144195556 c0.7192800092697146,-0.7992000102996828 1.1188800144195556,-1.6783200216293337 1.1188800144195556,-2.717280035018921 c0,-1.0389600133895875 -0.3996000051498415,-1.9980000257492065 -1.1188800144195556,-2.717280035018921 c-0.7992000102996828,-0.7192800092697146 -1.6783200216293337,-1.1188800144195556 -2.717280035018921,-1.1188800144195556 z" stroke-width="0" stroke-linejoin="miter" stroke-miterlimit="2" fill="#6d3355" stroke="#6d3355"/>
        <path id="path17070" style="font-style:normal;font-weight:700;font-size:72px;line-height:1;font-family:'Comfortaa Bold Alt2';font-variant-ligatures:none;text-align:center;text-anchor:middle" d="m576.9561826328874,406.49775560855863 c1.1188800144195556,0 2.077920026779175,-0.3996000051498415 2.877120037078858,-1.198800015449524 c0.7992000102996828,-0.7992000102996828 1.1188800144195556,-1.758240022659302 1.1188800144195556,-2.877120037078858 V381.8823952913284 c0,-5.594400072097779 -1.9980000257492065,-10.389600133895874 -5.914080076217652,-14.385600185394289 c-3.996000051498413,-3.996000051498413 -8.871120114326477,-5.99400007724762 -14.465520186424255,-5.99400007724762 c-5.674320073127746,0 -10.469520134925842,1.9980000257492065 -14.465520186424255,5.99400007724762 c-3.996000051498413,3.996000051498413 -5.99400007724762,8.791200113296508 -5.99400007724762,14.385600185394289 v20.539440264701845 c0,1.1188800144195556 0.3996000051498415,2.077920026779175 1.198800015449524,2.877120037078858 c0.7992000102996828,0.7992000102996828 1.758240022659302,1.1188800144195556 2.7972000360488893,1.1188800144195556 c1.1188800144195556,0 2.077920026779175,-0.31968000411987324 2.877120037078858,-1.1188800144195556 c0.7992000102996828,-0.7992000102996828 1.1188800144195556,-1.758240022659302 1.1188800144195556,-2.877120037078858 V381.8823952913284 c0,-3.356640043258667 1.2787200164794923,-6.313680081367493 3.6763200473785407,-8.71128011226654 c2.397600030899048,-2.4775200319290165 5.354640069007873,-3.6763200473785407 8.791200113296508,-3.6763200473785407 c3.4365600442886355,0 6.313680081367493,1.198800015449524 8.791200113296508,3.6763200473785407 c2.397600030899048,2.397600030899048 3.596400046348572,5.354640069007873 3.596400046348572,8.71128011226654 v20.619360265731814 c0,1.0389600133895875 0.3996000051498415,1.9980000257492065 1.198800015449524,2.7972000360488893 c0.7992000102996828,0.7992000102996828 1.758240022659302,1.198800015449524 2.7972000360488893,1.198800015449524 z" stroke-width="0" stroke-linejoin="miter" stroke-miterlimit="2" fill="#7f2d48" stroke="#7f2d48"/>
        <path id="path17072" style="font-style:normal;font-weight:700;font-size:72px;line-height:1;font-family:'Comfortaa Bold Alt2';font-variant-ligatures:none;text-align:center;text-anchor:middle" d="m602.05785532192,363.66062742710113 c-0.7992000102996828,0.7992000102996828 -1.1188800144195556,1.758240022659302 -1.1188800144195556,2.9570400381088264 v35.564400458335875 c0,1.198800015449524 0.31968000411987324,2.157840027809143 1.1188800144195556,2.9570400381088264 c0.7992000102996828,0.7992000102996828 1.758240022659302,1.1188800144195556 2.9570400381088264,1.1188800144195556 c1.198800015449524,0 2.157840027809143,-0.31968000411987324 2.9570400381088264,-1.1188800144195556 c0.7192800092697146,-0.7992000102996828 1.1188800144195556,-1.758240022659302 1.1188800144195556,-2.9570400381088264 v-35.564400458335875 c0,-1.198800015449524 -0.3996000051498415,-2.157840027809143 -1.1188800144195556,-2.9570400381088264 c-0.7992000102996828,-0.7192800092697146 -1.758240022659302,-1.1188800144195556 -2.9570400381088264,-1.1188800144195556 c-1.198800015449524,0 -2.157840027809143,0.3996000051498415 -2.9570400381088264,1.1188800144195556 zm6.633360085487364,-17.182800221443177 c-1.0389600133895875,-1.0389600133895875 -2.2377600288391113,-1.5984000205993651 -3.6763200473785407,-1.5984000205993651 c-1.4385600185394287,0 -2.717280035018921,0.5594400072097779 -3.7562400484085083,1.5984000205993651 c-1.0389600133895875,1.0389600133895875 -1.518480019569397,2.2377600288391113 -1.518480019569397,3.6763200473785407 c0,1.4385600185394287 0.4795200061798097,2.717280035018921 1.518480019569397,3.7562400484085083 c1.0389600133895875,1.0389600133895875 2.3176800298690803,1.518480019569397 3.7562400484085083,1.518480019569397 c1.4385600185394287,0 2.6373600339889527,-0.4795200061798097 3.6763200473785407,-1.518480019569397 c1.0389600133895875,-1.0389600133895875 1.5984000205993651,-2.3176800298690803 1.5984000205993651,-3.7562400484085083 c0,-1.4385600185394287 -0.5594400072097779,-2.6373600339889527 -1.5984000205993651,-3.6763200473785407 z" stroke-width="0" stroke-linejoin="miter" stroke-miterlimit="2" fill="#91273c" stroke="#91273c"/>
        <path id="path17074" style="font-style:normal;font-weight:700;font-size:72px;line-height:1;font-family:'Comfortaa Bold Alt2';font-variant-ligatures:none;text-align:center;text-anchor:middle" d="m666.7274206767917,406.49775560855863 c1.1188800144195556,0 2.077920026779175,-0.3996000051498415 2.877120037078858,-1.198800015449524 c0.7992000102996828,-0.7992000102996828 1.1188800144195556,-1.758240022659302 1.1188800144195556,-2.877120037078858 V381.8823952913284 c0,-5.594400072097779 -1.9980000257492065,-10.389600133895874 -5.914080076217652,-14.385600185394289 c-3.996000051498413,-3.996000051498413 -8.871120114326477,-5.99400007724762 -14.465520186424255,-5.99400007724762 c-5.674320073127746,0 -10.469520134925842,1.9980000257492065 -14.465520186424255,5.99400007724762 c-3.996000051498413,3.996000051498413 -5.99400007724762,8.791200113296508 -5.99400007724762,14.385600185394289 v20.539440264701845 c0,1.1188800144195556 0.3996000051498415,2.077920026779175 1.198800015449524,2.877120037078858 c0.7992000102996828,0.7992000102996828 1.758240022659302,1.1188800144195556 2.7972000360488893,1.1188800144195556 c1.1188800144195556,0 2.077920026779175,-0.31968000411987324 2.877120037078858,-1.1188800144195556 c0.7992000102996828,-0.7992000102996828 1.1188800144195556,-1.758240022659302 1.1188800144195556,-2.877120037078858 V381.8823952913284 c0,-3.356640043258667 1.2787200164794923,-6.313680081367493 3.6763200473785407,-8.71128011226654 c2.397600030899048,-2.4775200319290165 5.354640069007873,-3.6763200473785407 8.791200113296508,-3.6763200473785407 c3.4365600442886355,0 6.313680081367493,1.198800015449524 8.791200113296508,3.6763200473785407 c2.397600030899048,2.397600030899048 3.596400046348572,5.354640069007873 3.596400046348572,8.71128011226654 v20.619360265731814 c0,1.0389600133895875 0.3996000051498415,1.9980000257492065 1.198800015449524,2.7972000360488893 c0.7992000102996828,0.7992000102996828 1.758240022659302,1.198800015449524 2.7972000360488893,1.198800015449524 z" stroke-width="0" stroke-linejoin="miter" stroke-miterlimit="2" fill="#a3222f" stroke="#a3222f"/>
        <path id="path17076" style="font-style:normal;font-weight:700;font-size:72px;line-height:1;font-family:'Comfortaa Bold Alt2';font-variant-ligatures:none;text-align:center;text-anchor:middle" d="m731.8689871789575,384.35991532325744 c0,-6.153840079307557 -2.2377600288391113,-11.348640146255493 -6.553440084457398,-15.744240202903747 c-4.395600056648254,-4.315680055618286 -9.590400123596192,-6.553440084457398 -15.744240202903747,-6.553440084457398 c-6.153840079307557,0 -11.348640146255493,2.2377600288391113 -15.744240202903747,6.553440084457398 c-4.315680055618286,4.395600056648254 -6.473520083427429,9.590400123596192 -6.473520083427429,15.744240202903747 c0,6.153840079307557 2.157840027809143,11.348640146255493 6.473520083427429,15.744240202903747 c4.395600056648254,4.315680055618286 9.590400123596192,6.473520083427429 15.744240202903747,6.473520083427429 c5.51448007106781,0 10.309680132865907,-1.758240022659302 14.545440187454222,-5.354640069007873 v1.518480019569397 c0,3.996000051498413 -1.4385600185394287,7.432560095787048 -4.235760054588318,10.229760131835937 c-2.877120037078858,2.877120037078858 -6.313680081367493,4.235760054588318 -10.309680132865907,4.235760054588318 c-2.4775200319290165,0 -4.795200061798096,-0.5594400072097779 -6.953040089607239,-1.758240022659302 c-2.157840027809143,-1.1188800144195556 -3.916080050468445,-2.7972000360488893 -5.194800066947937,-4.875120062828064 c-0.6393600082397461,-0.879120011329651 -1.4385600185394287,-1.4385600185394287 -2.4775200319290165,-1.5984000205993651 c-1.0389600133895875,-0.23976000308990483 -1.9980000257492065,-0.07992000102996827 -2.877120037078858,0.4795200061798097 c-0.879120011329651,0.5594400072097779 -1.4385600185394287,1.3586400175094604 -1.6783200216293337,2.397600030899048 c-0.23976000308990483,1.0389600133895875 0,1.9980000257492065 0.5594400072097779,2.877120037078858 c1.3586400175094604,2.157840027809143 3.036960039138794,3.996000051498413 4.955040063858033,5.51448007106781 c1.9180800247192384,1.518480019569397 4.075920052528382,2.6373600339889527 6.3936000823974615,3.4365600442886355 c2.3176800298690803,0.7992000102996828 4.795200061798096,1.198800015449524 7.272720093727111,1.198800015449524 c6.153840079307557,0 11.348640146255493,-2.157840027809143 15.66432020187378,-6.473520083427429 c4.315680055618286,-4.315680055618286 6.553440084457398,-9.510480122566223 6.553440084457398,-15.66432020187378 V386.2779953479767 c0,-0.6393600082397461 0.07992000102996827,-1.2787200164794923 0.07992000102996827,-1.9180800247192384 zm-22.297680287361146,14.385600185394289 c-3.996000051498413,0 -7.3526400947570805,-1.3586400175094604 -10.14984013080597,-4.235760054588318 c-2.877120037078858,-2.7972000360488893 -4.235760054588318,-6.153840079307557 -4.235760054588318,-10.14984013080597 c0,-3.996000051498413 1.3586400175094604,-7.3526400947570805 4.235760054588318,-10.229760131835937 c2.7972000360488893,-2.7972000360488893 6.153840079307557,-4.235760054588318 10.14984013080597,-4.235760054588318 c3.996000051498413,0 7.3526400947570805,1.4385600185394287 10.229760131835937,4.235760054588318 c2.7972000360488893,2.877120037078858 4.235760054588318,6.233760080337524 4.235760054588318,10.229760131835937 c0,3.996000051498413 -1.4385600185394287,7.3526400947570805 -4.235760054588318,10.14984013080597 c-2.877120037078858,2.877120037078858 -6.233760080337524,4.235760054588318 -10.229760131835937,4.235760054588318 z" stroke-width="0" stroke-linejoin="miter" stroke-miterlimit="2" fill="#b51c23" stroke="#b51c23"/>
      </g>
      <image id="icon" style="display: none;" x="0" y="0" xlink:href="undefined"/>
    </g>
  </g></g></svg>